<?xml version="1.0" encoding="iso-8859-1"?>
<!-- Generator: Adobe Illustrator 19.0.0, SVG Export Plug-In . SVG Version: 6.00 Build 0)  -->
<svg version="1.1" id="Capa_1" xmlns="http://www.w3.org/2000/svg" xmlns:xlink="http://www.w3.org/1999/xlink" x="0px" y="0px"
	 viewBox="0 0 512 512" style="enable-background:new 0 0 512 512;" xml:space="preserve">
<g>
	<path style="fill:#F3705A;" d="M512,133.333C512,297.6,355.2,310.4,256,423.467C156.8,311.467,0,297.6,0,133.333
		C0,59.733,59.733,0,133.333,0C188.8,0,235.733,33.067,256,81.067C276.267,33.067,323.2,0,378.667,0
		C452.267,0,512,59.733,512,133.333z"/>
	<path style="fill:#F3705A;" d="M320,445.867c-34.133,34.133-92.8,34.133-126.933,0c17.067-18.133,45.867-53.333,45.867-69.333
		c11.733,0,23.467,0,35.2,0C274.133,392.533,302.933,427.733,320,445.867z"/>
</g>
<path style="fill:#415A6B;" d="M256,406.4c-13.867,0-27.733-3.2-41.6-8.533c-3.2-1.067-5.333-5.333-4.267-8.533
	s5.333-5.333,8.533-4.267c24.533,10.667,49.067,10.667,73.6,0c3.2-1.067,7.467,0,8.533,4.267c1.067,3.2,0,7.467-4.267,8.533
	C283.733,403.2,269.867,406.4,256,406.4z"/>
<g>
	<path style="fill:#344A5E;" d="M256,420.267c-11.733,0-24.533-2.133-36.267-6.4c-3.2-1.067-5.333-5.333-4.267-8.533
		c1.067-3.2,5.333-5.333,8.533-4.267c21.333,7.467,42.667,7.467,62.933,0c3.2-1.067,7.467,1.067,8.533,4.267
		s-1.067,7.467-4.267,8.533C280.533,418.133,267.733,420.267,256,420.267z"/>
	<path style="fill:#344A5E;" d="M266.667,408.533v96c0,4.267,3.2,7.467,7.467,7.467c4.267,0,7.467-3.2,7.467-7.467v-96H266.667z"/>
</g>
<g>
	<path style="fill:#FFFFFF;" d="M109.867,241.067v-80H128v64h34.133v16H109.867z"/>
	<path style="fill:#FFFFFF;" d="M240,229.333c-8.533,7.467-18.133,11.733-29.867,11.733c-11.733,0-21.333-4.267-29.867-11.733
		s-11.733-18.133-11.733-29.867c0-11.733,4.267-21.333,11.733-29.867c8.533-7.467,18.133-11.733,29.867-11.733
		c11.733,0,21.333,4.267,29.867,11.733s11.733,18.133,11.733,29.867C251.733,212.267,247.467,221.867,240,229.333z M233.6,200.533
		c0-7.467-2.133-12.8-6.4-18.133c-4.267-5.333-10.667-7.467-17.067-7.467c-6.4,0-12.8,2.133-17.067,7.467
		c-4.267,5.333-6.4,10.667-6.4,18.133s2.133,12.8,6.4,18.133s10.667,7.467,17.067,7.467c6.4,0,12.8-2.133,17.067-7.467
		C231.467,213.333,233.6,208,233.6,200.533z"/>
	<path style="fill:#FFFFFF;" d="M294.4,212.267l20.267-51.2h19.2l-32,80h-14.933l-32-80h19.2L294.4,212.267z"/>
	<path style="fill:#FFFFFF;" d="M401.067,161.067v16H361.6v16h36.267V208H361.6v17.067h41.6v16h-58.667v-80H401.067z"/>
</g>
<g>
</g>
<g>
</g>
<g>
</g>
<g>
</g>
<g>
</g>
<g>
</g>
<g>
</g>
<g>
</g>
<g>
</g>
<g>
</g>
<g>
</g>
<g>
</g>
<g>
</g>
<g>
</g>
<g>
</g>
</svg>
